<?xml version="1.0" encoding="utf-8"?>
<!-- Generator: Adobe Illustrator 24.3.0, SVG Export Plug-In . SVG Version: 6.00 Build 0)  -->
<svg version="1.1" id="Layer_1" xmlns="http://www.w3.org/2000/svg" xmlns:xlink="http://www.w3.org/1999/xlink" x="0px" y="0px"
	 viewBox="0 0 512 512" style="enable-background:new 0 0 512 512;" xml:space="preserve">
<style type="text/css">
	.st0{fill:#61B147;}
	.st1{fill:#3B3B3B;}
	.st2{fill:#FFFFFF;}
</style>
<path class="st0" d="M15.3,358.2c0,0-13.4-99.4,51.8-185.3c1.8-2.3,3.5-4.6,5.2-7c7.4-10.2,41.3-51.1,123.9-71.4
	c0,0,52.1-15.1,112.4-14.5l56.2-2.6c0,0,79.9-3.8,121.4-50.3c0,0,5.9,86-22.2,199c0,0-57.9,221.2-265.1,227.1
	c0,0-97.4,4.4-167.2-56.6c0,0,59.2-70.7,134.7-112.8c0,0,42.1-22.4,95.7-39.1c0,0,86-24.1,130.2-82.1c0,0-59.7,43-138.4,59.4
	c0,0-76.4,13.8-140.7,51.2C113.1,273.2,54,308.1,15.3,358.2z"/>
</svg>
