<?xml version="1.0" encoding="UTF-8" standalone="no"?>
<!DOCTYPE svg PUBLIC "-//W3C//DTD SVG 1.1//EN" "http://www.w3.org/Graphics/SVG/1.1/DTD/svg11.dtd">
<svg xmlns="http://www.w3.org/2000/svg" version="1.1" viewBox="0.00 0.00 1773.00 1773.00">
<path fill="#61b147" d="
  M 30.04 1202.18
  A 0.15 0.15 0.0 0 1 29.77 1202.09
  Q 28.41 1179.64 27.84 1161.00
  C 27.34 1144.13 26.99 1118.96 27.48 1098.68
  C 32.18 904.24 87.91 710.34 200.74 550.50
  Q 222.17 520.14 244.93 494.18
  C 252.47 485.59 261.00 475.56 269.19 467.07
  Q 336.15 397.57 420.40 349.38
  Q 484.82 312.54 557.28 286.49
  Q 605.73 269.08 648.47 257.19
  Q 708.84 240.42 771.01 227.52
  C 806.74 220.11 844.55 212.61 879.97 207.89
  Q 915.18 203.19 960.25 200.29
  Q 1004.91 197.42 1049.25 196.00
  C 1163.81 192.32 1277.10 191.00 1388.01 172.03
  C 1461.90 159.40 1533.52 138.40 1599.23 104.22
  Q 1675.27 64.66 1735.11 3.29
  A 0.33 0.33 0.0 0 1 1735.67 3.51
  Q 1738.47 114.34 1732.89 224.50
  C 1725.11 378.03 1703.81 531.29 1663.64 679.45
  C 1627.81 811.63 1576.12 939.67 1504.77 1056.29
  C 1457.69 1133.26 1401.81 1204.78 1337.11 1268.36
  Q 1262.21 1341.97 1173.34 1397.83
  C 1044.83 1478.60 897.52 1526.81 746.25 1538.14
  Q 548.43 1552.97 360.25 1488.45
  C 263.49 1455.28 171.77 1405.68 91.40 1341.90
  A 0.36 0.36 0.0 0 1 91.34 1341.40
  Q 95.09 1336.54 99.39 1331.40
  Q 170.03 1247.07 246.53 1174.29
  C 332.68 1092.34 428.24 1019.77 530.87 959.87
  C 617.35 909.39 709.24 867.49 804.63 833.16
  C 860.99 812.88 919.04 793.84 970.30 775.31
  C 1020.91 757.01 1071.34 736.44 1119.94 711.94
  Q 1215.83 663.60 1296.92 593.15
  Q 1349.77 547.24 1395.56 493.99
  A 0.19 0.18 2.6 0 0 1395.31 493.72
  Q 1225.26 609.90 1028.79 671.78
  Q 979.82 687.20 928.68 700.39
  C 870.45 715.42 805.52 730.07 753.53 743.57
  Q 723.20 751.44 683.43 764.41
  C 602.49 790.81 527.00 820.24 453.70 857.20
  Q 327.48 920.83 218.61 1012.36
  Q 178.30 1046.24 141.46 1082.21
  Q 82.87 1139.42 30.04 1202.18
  Z"
/>
</svg>
