<?xml version="1.0" encoding="utf-8"?>
<!-- Generator: Adobe Illustrator 24.3.0, SVG Export Plug-In . SVG Version: 6.00 Build 0)  -->
<svg version="1.1" id="Layer_1" xmlns="http://www.w3.org/2000/svg" xmlns:xlink="http://www.w3.org/1999/xlink" x="0px" y="0px"
	 viewBox="0 0 1500 800" style="enable-background:new 0 0 1500 800;" xml:space="preserve">
<style type="text/css">
	.st0{fill:#3B3B3B;}
	.st1{fill:#61B147;}
	.st2{fill:#FFFFFF;}
</style>
<g>
	<path class="st0" d="M367.2,417.6v217.5c0,0-41.8,9.8-82,3c0,0-0.1,0-0.1,0c-19.9-2.8-35.3-19.9-35.2-40.8l0.7-168.3
		c-1.5-42.4-36.5-47-36.5-47c-32.1-5.5-61,10.5-61,10.5v242.4c0,0-30,8.3-69.7,5.5c-26.5,0-48-21.5-48-48l0.8-408.2
		c23-6,50.4-6.1,57-6.1c1.1,0,2.1,0,3.2,0c58.8-1.3,57.3,48.3,57.3,48.3l0.2,76c31.4-15.2,81.8-13.2,81.8-13.2
		C372.3,295.1,367.2,417.6,367.2,417.6z"/>
	<path class="st0" d="M939.7,227.9v54.2l-0.1,20v90.2l-0.4,242.4c0,0-30,8.3-69.7,5.5c-27.3-1.3-48-21.5-48-48l0.6-310.1v-97.7
		c0,0,58.4-13.3,88.6-2.4c0.6,0.2,1.2,0.4,1.8,0.6C916.3,184,939,193.5,939.7,227.9z"/>
	<path class="st0" d="M763.6,430.9c0,0-0.8-60.4-47.7-101.9c0,0-48.3-50.6-152.4-37.7c0,0-138.9,17.1-138,174.7
		c0,0-6.2,149.5,147.6,177.1c0,0,98.7,15.6,150.4-18.4c15.5-10.1,25-27.4,24.6-45.9c-0.2-7.7-1.7-16.1-6.2-23.6
		c0,0-6.9-12.1-19.3-20.4c0,0-44.1,27.6-109.9,23.8c0,0-54-2.5-70.5-45.6l180.2-27.9C722.4,485.3,764.2,481.3,763.6,430.9z
		 M533.9,435.8c5.3-55.8,52.2-61,52.2-61c58.5-7.8,67.3,41.5,67.3,41.5L533.9,435.8z"/>
	<path class="st0" d="M1313,304.2l0.1,281.7c0,2.2,0,4.3,0,6.5c-0.2,7.8,1.7,52.5,65.7,48.8c0,0,34-1.5,51.5-7V346.5
		c0,0,2.3-46.4-50-48.5C1380.2,297.9,1346.1,297.3,1313,304.2z"/>
	<path class="st0" d="M1133.2,415.5l0.2,219.2c0,0-51.2,11.3-85.7,2.8c-0.5-0.1-1-0.2-1.5-0.4c-3.8-0.9-28.1-7.8-29.9-44.2v-65.8
		l-0.2-221.9c0-2.1,0-4.2-0.1-6.4c-0.3-11.2,0.6-70.2,48.4-104.4c1.7-1.2,3.4-2.4,5-3.7c7.8-5.8,40.2-26.4,106.4-25.1
		c0,0,80-2.3,90.5,38.9c0.1,0.5,0.3,1.1,0.4,1.6c1.4,4.9,9,36.8-16.9,60.6c0,0-23.4-11-80-8c0,0-43.2,3.8-43.5,43l-0.2,24.3
		l114.3-0.4c0,0,13.3,18.8,10.9,56.2c0,0-1,25.3-27.1,31.9c-3.6,0.9-7.3,1.3-11.1,1.3L1133.2,415.5z"/>
	<path class="st1" d="M1312.7,242.1c0,0-4.3-31.7,16.5-59.2c0.6-0.7,1.1-1.5,1.7-2.2c2.3-3.3,13.2-16.3,39.6-22.8
		c0,0,16.6-4.8,35.9-4.6l17.9-0.8c0,0,25.5-1.2,38.8-16.1c0,0,1.9,27.5-7.1,63.5c0,0-18.5,70.6-84.6,72.5c0,0-31.1,1.4-53.4-18.1
		c0,0,18.9-22.6,43-36c0,0,13.5-7.1,30.5-12.5c0,0,27.5-7.7,41.6-26.2c0,0-19.1,13.7-44.2,19c0,0-24.4,4.4-44.9,16.3
		C1343.9,214.9,1325,226.1,1312.7,242.1z"/>
</g>
</svg>
