<?xml version="1.0" encoding="UTF-8" standalone="no"?>
<!DOCTYPE svg PUBLIC "-//W3C//DTD SVG 1.1//EN" "http://www.w3.org/Graphics/SVG/1.1/DTD/svg11.dtd">
<svg xmlns="http://www.w3.org/2000/svg" version="1.1" viewBox="0.00 0.00 2428.00 1295.00">
<path fill="#61b147" d="
  M 2318.02 292.18
  Q 2291.19 309.45 2261.86 318.28
  Q 2258.97 319.15 2240.16 323.46
  C 2213.64 329.54 2186.57 339.50 2164.60 355.23
  C 2149.69 365.91 2136.24 377.64 2125.07 391.69
  A 0.29 0.29 0.0 0 1 2124.56 391.53
  Q 2120.71 334.55 2155.42 290.99
  C 2166.63 276.92 2185.04 266.48 2202.48 260.46
  Q 2225.74 252.43 2251.72 249.52
  Q 2260.35 248.55 2277.84 248.08
  Q 2289.99 247.76 2303.99 246.92
  C 2327.20 245.51 2351.23 238.12 2367.65 221.40
  A 0.26 0.25 63.8 0 1 2368.08 221.55
  Q 2368.36 223.36 2368.38 224.75
  Q 2368.90 266.53 2359.99 309.47
  Q 2355.98 328.79 2349.65 343.43
  Q 2335.89 375.26 2314.34 398.27
  C 2284.66 429.95 2242.86 445.82 2199.90 439.96
  C 2175.36 436.61 2151.84 428.08 2133.46 412.10
  A 0.50 0.50 0.0 0 1 2133.41 411.39
  C 2153.03 389.30 2176.50 368.37 2200.86 354.59
  Q 2214.73 346.75 2240.54 337.29
  Q 2242.06 336.73 2259.42 330.83
  C 2280.79 323.56 2303.77 310.25 2318.25 292.45
  A 0.18 0.18 0.0 0 0 2318.02 292.18
  Z"
/>
<path fill="#3b3b3b" d="
  M 1823.63 527.82
  L 2007.77 527.14
  A 0.72 0.72 0.0 0 1 2008.38 527.48
  Q 2011.24 532.14 2012.93 535.85
  C 2023.81 559.76 2027.09 586.48 2026.05 613.26
  C 2024.67 648.90 1999.54 671.78 1964.50 672.03
  Q 1950.03 672.13 1834.79 672.68
  A 0.32 0.31 -90.0 0 0 1834.48 673.00
  L 1834.48 1027.31
  A 0.18 0.17 -6.2 0 1 1834.34 1027.48
  Q 1785.02 1037.70 1737.52 1037.04
  Q 1721.65 1036.82 1703.52 1033.66
  Q 1690.04 1031.31 1681.75 1026.97
  C 1659.80 1015.48 1648.99 993.54 1645.84 969.86
  Q 1644.98 963.37 1644.98 948.11
  Q 1644.98 696.60 1644.61 495.38
  Q 1644.56 466.41 1646.06 453.78
  C 1652.51 399.69 1676.47 348.99 1721.20 316.11
  Q 1732.51 307.80 1733.75 306.98
  C 1757.39 291.28 1785.66 281.58 1813.63 275.91
  Q 1850.73 268.38 1890.01 268.27
  Q 1901.98 268.24 1911.50 268.37
  Q 1942.23 268.79 1972.01 275.21
  C 2000.16 281.27 2034.76 294.66 2046.96 323.17
  Q 2051.34 333.40 2053.06 348.06
  C 2056.78 379.74 2047.16 409.55 2023.63 431.57
  A 0.98 0.97 -55.3 0 1 2022.59 431.76
  C 2019.15 430.33 2013.92 428.61 2011.33 427.93
  C 1977.20 418.88 1940.97 417.31 1904.99 418.47
  Q 1891.40 418.91 1884.61 420.49
  C 1854.65 427.43 1829.29 444.98 1824.21 477.31
  Q 1823.27 483.28 1823.23 502.28
  Q 1823.20 515.00 1823.06 527.25
  A 0.56 0.56 0.0 0 0 1823.63 527.82
  Z"
/>
<path fill="#3b3b3b" d="
  M 1331.58 298.62
  Q 1374.54 289.20 1418.50 287.89
  Q 1430.77 287.52 1443.50 288.67
  C 1461.76 290.31 1480.84 294.22 1495.06 306.60
  C 1513.41 322.58 1521.18 346.28 1521.18 370.26
  Q 1521.23 659.15 1520.35 1027.42
  A 0.57 0.57 0.0 0 1 1519.90 1027.98
  Q 1469.90 1039.41 1416.73 1037.11
  Q 1401.72 1036.46 1394.73 1035.08
  C 1362.84 1028.77 1337.83 1006.31 1331.39 974.45
  Q 1329.80 966.57 1329.85 946.94
  Q 1330.84 609.00 1330.98 299.36
  A 0.76 0.76 0.0 0 1 1331.58 298.62
  Z"
/>
<path fill="#3b3b3b" d="
  M 249.35 488.87
  Q 275.25 477.63 303.46 473.15
  C 369.38 462.65 442.35 465.15 501.15 500.24
  C 555.38 532.62 585.56 588.77 592.97 650.33
  Q 594.41 662.27 594.40 689.25
  Q 594.35 967.86 594.38 1027.75
  A 0.54 0.53 -6.0 0 1 593.95 1028.27
  Q 559.75 1035.38 523.75 1036.68
  C 502.38 1037.45 480.04 1036.46 458.75 1032.45
  C 426.62 1026.41 404.22 998.90 404.33 966.50
  Q 404.70 855.18 405.40 694.47
  Q 405.44 684.75 402.09 671.42
  C 396.59 649.54 382.29 632.34 361.58 623.07
  Q 349.51 617.66 333.07 616.85
  C 303.32 615.37 275.01 622.02 248.41 634.94
  A 1.16 1.16 0.0 0 0 247.76 635.98
  L 247.76 1027.08
  A 0.98 0.98 0.0 0 1 246.99 1028.04
  Q 198.75 1039.01 148.50 1037.26
  Q 143.69 1037.09 134.15 1036.65
  Q 125.11 1036.24 119.90 1035.15
  C 89.03 1028.70 64.94 1005.28 58.77 974.39
  Q 57.23 966.67 57.27 945.60
  Q 57.96 619.77 58.61 298.65
  A 0.76 0.74 83.1 0 1 59.17 297.92
  C 93.00 289.40 128.54 287.93 163.48 288.25
  C 183.54 288.44 204.65 293.55 220.28 305.79
  C 235.70 317.86 244.85 335.53 247.86 354.90
  Q 248.79 360.87 248.81 373.65
  Q 248.90 430.04 249.11 488.71
  A 0.17 0.17 0.0 0 0 249.35 488.87
  Z"
/>
<path fill="#3b3b3b" d="
  M 878.26 830.72
  A 0.42 0.42 0.0 0 0 877.94 831.30
  Q 890.98 863.37 920.64 881.65
  Q 941.57 894.56 966.96 900.58
  Q 987.75 905.50 1016.88 905.02
  C 1069.25 904.14 1123.40 891.76 1169.35 866.13
  A 0.80 0.78 -42.3 0 1 1170.18 866.16
  Q 1183.28 874.76 1194.80 889.70
  C 1202.33 899.47 1207.01 909.21 1209.36 920.99
  C 1216.48 956.64 1201.05 991.94 1170.79 1011.59
  C 1147.86 1026.48 1120.18 1035.18 1092.85 1040.08
  C 1044.31 1048.80 993.18 1048.39 943.24 1043.05
  C 914.11 1039.94 884.45 1031.99 858.24 1021.29
  Q 790.00 993.46 747.51 937.47
  C 720.38 901.74 703.08 859.08 694.32 813.96
  Q 688.91 786.10 688.61 758.00
  C 688.23 722.02 692.14 685.88 702.47 651.95
  Q 725.31 576.87 783.74 529.39
  C 816.88 502.48 857.13 483.50 898.81 474.08
  Q 907.61 472.09 917.75 470.95
  C 987.58 463.14 1060.07 471.30 1121.70 505.75
  Q 1138.80 515.31 1153.21 527.53
  C 1190.93 559.49 1215.99 601.42 1228.50 649.75
  Q 1235.15 675.46 1236.02 697.75
  Q 1236.26 703.84 1235.27 713.49
  C 1231.31 752.03 1207.03 779.94 1167.99 785.96
  Q 986.16 814.00 878.26 830.72
  Z
  M 865.07 705.40
  L 1057.42 674.01
  A 0.33 0.33 0.0 0 0 1057.69 673.61
  C 1051.57 648.25 1035.46 626.17 1011.84 614.70
  Q 995.64 606.83 975.49 605.75
  Q 958.50 604.84 945.44 607.50
  C 897.41 617.27 868.25 657.46 864.44 704.81
  A 0.56 0.55 87.6 0 0 865.07 705.40
  Z"
/>
<path fill="#3b3b3b" d="
  M 2125.69 492.42
  C 2161.46 485.07 2199.06 482.06 2234.97 482.51
  Q 2249.33 482.69 2264.13 487.47
  C 2292.32 496.56 2309.70 518.64 2314.22 547.64
  Q 2315.18 553.73 2315.17 566.66
  Q 2315.15 632.86 2315.16 1026.38
  A 0.63 0.63 0.0 0 1 2314.70 1026.99
  C 2293.92 1032.64 2273.72 1034.87 2250.51 1036.84
  C 2222.58 1039.21 2193.27 1040.41 2167.42 1028.17
  C 2144.17 1017.17 2129.80 996.62 2126.24 971.29
  Q 2125.43 965.55 2125.45 952.19
  Q 2125.54 890.41 2125.32 492.87
  A 0.47 0.46 -6.2 0 1 2125.69 492.42
  Z"
/>
</svg>
