<?xml version="1.0" encoding="UTF-8" standalone="no"?>
<!DOCTYPE svg PUBLIC "-//W3C//DTD SVG 1.1//EN" "http://www.w3.org/Graphics/SVG/1.1/DTD/svg11.dtd">
<svg xmlns="http://www.w3.org/2000/svg" version="1.1" viewBox="0.00 0.00 2428.00 1295.00">
<path fill="#61b147" d="
  M 2328.84 363.75
  A 0.17 0.17 0.0 0 0 2328.61 363.50
  Q 2296.57 384.73 2259.38 393.10
  Q 2245.99 396.11 2242.94 396.91
  C 2222.04 402.36 2199.19 410.83 2181.05 422.71
  C 2164.07 433.83 2148.25 447.37 2135.22 463.43
  A 0.21 0.21 0.0 0 1 2134.84 463.31
  Q 2130.87 404.58 2167.53 360.42
  Q 2172.57 354.35 2183.49 346.74
  Q 2195.65 338.27 2210.63 332.90
  Q 2243.77 321.02 2280.17 319.97
  C 2292.68 319.61 2302.35 319.30 2316.21 318.43
  C 2337.55 317.08 2362.88 309.19 2378.00 292.90
  A 0.27 0.26 -24.5 0 1 2378.46 293.07
  C 2379.39 324.34 2375.88 355.40 2369.12 386.11
  C 2362.41 416.66 2346.52 445.72 2325.87 468.51
  C 2296.30 501.15 2253.77 517.56 2209.83 511.56
  C 2185.41 508.22 2162.03 499.67 2143.67 483.70
  A 0.40 0.40 0.0 0 1 2143.63 483.14
  Q 2165.38 458.43 2191.52 439.03
  Q 2206.98 427.55 2224.01 419.75
  Q 2240.79 412.07 2258.65 406.24
  Q 2273.99 401.23 2280.70 398.22
  C 2299.36 389.86 2316.30 379.17 2328.84 363.75
  Z"
/>
<path fill="#ffffff" d="
  M 1844.81 744.84
  L 1844.81 1098.82
  A 0.34 0.32 84.9 0 1 1844.55 1099.15
  Q 1797.39 1108.95 1751.51 1108.74
  Q 1730.69 1108.64 1712.91 1105.09
  C 1705.61 1103.64 1699.11 1102.19 1692.81 1098.98
  C 1670.19 1087.47 1659.40 1065.42 1656.16 1041.12
  Q 1655.33 1034.89 1655.33 1022.49
  Q 1655.33 803.50 1655.03 568.82
  Q 1655.03 564.55 1654.91 556.68
  C 1653.90 491.70 1678.89 425.54 1733.03 386.68
  C 1738.62 382.67 1743.32 378.96 1748.37 375.86
  Q 1766.28 364.88 1787.57 357.56
  C 1822.72 345.46 1859.66 340.51 1897.00 339.94
  Q 1917.38 339.64 1934.73 340.51
  Q 1967.10 342.13 1996.83 350.65
  C 2016.60 356.32 2037.23 366.27 2049.87 382.37
  Q 2056.49 390.81 2059.78 401.96
  C 2070.46 438.11 2061.93 477.62 2033.65 503.38
  A 0.49 0.47 -55.5 0 1 2033.16 503.48
  Q 2024.98 500.27 2016.27 498.20
  C 1984.26 490.55 1951.13 489.17 1916.91 490.06
  Q 1901.16 490.47 1891.77 492.88
  C 1864.09 499.97 1841.36 516.66 1835.14 545.44
  Q 1833.51 553.01 1833.58 571.13
  Q 1833.62 581.87 1833.34 598.88
  A 0.57 0.57 0.0 0 0 1833.91 599.46
  L 2017.85 598.82
  A 1.21 1.19 74.5 0 1 2018.88 599.41
  C 2034.60 625.81 2038.53 662.24 2035.74 691.98
  Q 2034.70 703.07 2028.61 714.12
  C 2017.41 734.45 1996.59 743.61 1973.75 743.72
  Q 1903.89 744.06 1845.31 744.35
  A 0.50 0.49 -0.0 0 0 1844.81 744.84
  Z"
/>
<path fill="#ffffff" d="
  M 1530.73 1098.91
  A 0.81 0.81 0.0 0 1 1530.10 1099.69
  Q 1474.18 1112.35 1415.91 1108.11
  C 1379.88 1105.49 1349.37 1082.38 1341.84 1046.35
  Q 1340.17 1038.42 1340.27 1018.54
  Q 1340.48 974.71 1341.24 575.00
  Q 1341.42 481.93 1341.30 370.77
  A 0.49 0.49 0.0 0 1 1341.69 370.29
  C 1373.68 363.51 1407.41 359.14 1439.49 359.58
  C 1456.97 359.82 1475.12 361.96 1490.93 368.97
  C 1518.61 381.23 1531.51 412.29 1531.51 440.88
  Q 1531.55 742.70 1530.73 1098.91
  Z"
/>
<path fill="#ffffff" d="
  M 260.25 560.51
  Q 284.62 549.45 314.97 544.69
  Q 345.40 539.92 374.99 539.38
  C 432.16 538.34 491.39 552.05 535.42 588.80
  C 574.88 621.72 597.19 670.47 603.42 721.57
  Q 605.12 735.55 604.91 760.00
  Q 604.80 771.65 604.87 1099.40
  A 0.50 0.49 84.4 0 1 604.48 1099.89
  Q 554.62 1110.33 505.07 1108.09
  Q 482.71 1107.09 465.87 1103.34
  C 440.31 1097.66 420.68 1076.42 415.80 1050.25
  Q 414.65 1044.12 414.88 1020.66
  Q 415.09 998.64 415.93 766.50
  Q 415.96 756.61 412.87 743.86
  C 406.44 717.40 386.57 696.94 360.22 690.80
  Q 345.08 687.27 326.24 688.49
  Q 290.84 690.77 258.66 706.84
  A 0.62 0.62 0.0 0 0 258.31 707.40
  L 258.31 1099.17
  A 0.45 0.44 -6.6 0 1 257.96 1099.60
  Q 211.98 1110.13 164.00 1109.08
  Q 159.98 1108.99 148.76 1108.51
  Q 137.93 1108.04 133.57 1107.32
  C 101.49 1102.04 75.73 1078.04 69.38 1046.08
  Q 67.81 1038.18 67.85 1019.24
  Q 68.41 763.04 69.22 370.31
  A 0.87 0.87 0.0 0 1 69.90 369.46
  Q 102.49 361.93 136.51 360.50
  Q 154.40 359.75 172.99 359.88
  C 216.18 360.18 250.39 381.03 258.26 425.29
  Q 259.37 431.54 259.39 445.27
  Q 259.52 528.52 259.70 560.15
  A 0.39 0.39 0.0 0 0 260.25 560.51
  Z"
/>
<path fill="#ffffff" d="
  M 888.80 902.36
  A 0.41 0.40 74.8 0 0 888.49 902.91
  C 904.02 942.93 941.78 964.77 982.13 973.26
  Q 1001.45 977.32 1030.09 976.61
  Q 1087.09 975.19 1139.81 956.08
  Q 1160.98 948.40 1179.94 937.70
  A 0.66 0.64 -41.8 0 1 1180.63 937.73
  Q 1198.43 950.12 1210.23 968.52
  C 1221.32 985.82 1223.82 1008.59 1219.56 1028.26
  C 1214.14 1053.28 1198.05 1073.88 1175.83 1086.62
  Q 1152.67 1099.88 1125.13 1106.90
  C 1089.87 1115.89 1053.21 1118.88 1017.25 1118.43
  Q 973.38 1117.89 940.51 1112.93
  Q 903.92 1107.41 867.22 1092.28
  Q 800.68 1064.85 758.81 1010.15
  C 717.65 956.40 697.68 885.59 699.15 817.26
  C 700.15 770.37 708.43 725.19 728.80 683.16
  C 761.98 614.72 825.72 568.16 898.44 548.38
  Q 917.76 543.13 941.89 541.25
  C 1007.19 536.17 1071.36 544.96 1128.12 575.20
  Q 1153.33 588.62 1174.40 608.86
  C 1214.21 647.09 1237.56 697.85 1245.03 752.51
  C 1250.91 795.59 1237.86 839.57 1192.48 854.47
  Q 1186.95 856.28 1175.30 858.08
  Q 894.34 901.49 888.80 902.36
  Z
  M 875.20 777.12
  L 1067.68 745.71
  A 0.52 0.51 78.5 0 0 1068.09 745.08
  Q 1064.02 728.24 1054.18 713.93
  C 1032.72 682.71 996.97 673.52 960.99 678.29
  C 937.37 681.43 914.66 694.48 899.62 712.59
  C 884.68 730.58 876.91 753.45 874.88 776.82
  A 0.28 0.27 87.6 0 0 875.20 777.12
  Z"
/>
<path fill="#ffffff" d="
  M 2136.21 564.03
  Q 2154.60 560.21 2175.99 557.79
  Q 2212.26 553.68 2246.04 554.21
  Q 2260.26 554.43 2275.39 559.47
  C 2303.39 568.79 2320.11 591.09 2324.55 619.89
  Q 2325.55 626.35 2325.37 638.67
  Q 2325.35 640.38 2325.37 1098.10
  A 0.54 0.54 0.0 0 1 2324.97 1098.62
  Q 2313.44 1101.88 2301.51 1103.76
  Q 2268.58 1108.93 2233.33 1109.99
  C 2189.70 1111.30 2147.31 1095.13 2137.27 1047.85
  Q 2135.74 1040.60 2135.74 1022.03
  Q 2135.75 902.38 2135.60 564.78
  A 0.77 0.77 0.0 0 1 2136.21 564.03
  Z"
/>
</svg>
